#!OML:ASF I:\Actors\actors\Patient Classification 1\Patient 1\Session 1\Subject1.ASF
:FULLY-SPECIFIED
:DEGREES
442
root 0.210689 17.6836 8.86011 20.8741 6.60916 -8.41742
lowerback 11.2193 -0.755223 8.06722
upperback -0.902122 0.305736 2.88149
thorax -7.26778 -0.104242 -1.53439
lowerneck -0.000313882 -4.82292 -2.1131
upperneck -7.85969 -5.62386 14.6401
head -1.80234 -3.15811 4.82622
rclavicle -3.88251e-015 6.73383e-015
rhumerus 1.62013 18.1054 -84.9828
rradius 21.0672
rwrist 38.9082
rhand -3.51003 -28.2044
rfingers 7.12502
rthumb 22.2244 -56.9466
lclavicle -3.88251e-015 6.73383e-015
lhumerus -5.84242 -6.00232 94.6379
lradius 14.7245
lwrist -42.2374
lhand -20.1506 -20.093
lfingers 7.12502
lthumb 6.19443 9.79639
rfemur -16.0585 25.6724 19.5325
rtibia 3.33302
rfoot -15.8298 -33.4353
rtoes 10.0872
lfemur -16.9128 -46.1239 4.67717
ltibia -3.25121
lfoot -16.7768 52.7302
ltoes 5.19455
443
root 0.20831 17.6991 8.88119 20.9528 6.01771 -8.22754
lowerback 10.7369 -0.554716 7.55453
upperback -0.954223 0.447661 2.78478
thorax -7.03513 -0.0116366 -1.37723
lowerneck 0.123147 -4.85231 -2.07434
upperneck -7.26597 -5.73581 14.4685
head -1.64705 -3.18902 4.7568
rclavicle 4.24902e-015 -2.17172e-014
rhumerus 1.02725 13.5307 -86.156
rradius 20.1417
rwrist 42.7765
rhand -3.51527 -27.8561
rfingers 7.12502
rthumb 22.2194 -56.5989
lclavicle 4.24902e-015 -2.17172e-014
lhumerus -5.79407 -0.830975 94.6244
lradius 13.6128
lwrist -48.3692
lhand -19.329 -20.5093
lfingers 7.12502
lthumb 6.98758 9.35536
rfemur -16.2353 25.5705 19.2695
rtibia 3.56511
rfoot -15.4328 -32.9729
rtoes 9.11795
lfemur -16.578 -45.9591 4.0967
ltibia -3.1936
lfoot -17.8915 52.8438
ltoes 6.40921
444
root 0.203836 17.7129 8.90344 21.0651 5.34055 -7.87684
lowerback 10.1675 -0.357266 6.79257
upperback -0.917742 0.54521 2.66812
thorax -6.66392 0.0730022 -1.09327
lowerneck 0.408937 -4.80307 -2.20895
upperneck -6.91791 -5.70072 14.5731
head -1.58814 -3.1661 4.81092
rclavicle -2.50422e-015 8.42505e-015
rhumerus 0.314029 6.29915 -87.6718
rradius 20.058
rwrist 48.877
rhand -3.05605 -27.2693
rfingers 7.12502
rthumb 22.6602 -55.959
lclavicle -2.50422e-015 8.42505e-015
lhumerus -5.93619 1.84052 94.5268
lradius 13.1881
lwrist -50.7716
lhand -18.9128 -20.6032
lfingers 7.12502
lthumb 7.38931 9.24775
rfemur -16.4848 25.4161 18.8007
rtibia 3.85788
rfoot -15.0365 -32.4662
rtoes 8.1219
lfemur -16.283 -46.1287 3.39348
ltibia -3.13199
lfoot -18.7745 53.3215
ltoes 7.09456
445
root 0.203411 17.7201 8.91721 21.0278 4.97411 -7.77705
lowerback 9.75156 -0.249407 6.5097
upperback -0.77842 0.603466 2.61951
thorax -6.27492 0.123198 -0.996922
lowerneck 0.769216 -4.78335 -2.26599
upperneck -6.95172 -5.6694 14.4948
head -1.66227 -3.16177 4.8078
rclavicle 1.28138e-014 -4.45091e-015
rhumerus -0.140496 6.43697 -87.7979
rradius 20.3472
rwrist 47.1962
rhand -2.95439 -27.8752
rfingers 7.12502
rthumb 22.7577 -56.553
lclavicle 1.28138e-014 -4.45091e-015
lhumerus -6.26107 1.18617 94.4668
lradius 13.4585
lwrist -48.8236
lhand -18.8312 -20.0995
lfingers 7.12502
lthumb 7.46806 9.74868
rfemur -16.5557 25.1374 18.7322
rtibia 4.11223
rfoot -14.7453 -32.0179
rtoes 7.32934
lfemur -15.9785 -45.7294 2.85751
ltibia -2.99039
lfoot -18.648 53.1582
ltoes 6.86027
446
root 0.202769 17.7237 8.92575 20.9324 4.69268 -7.70537
lowerback 9.49149 -0.124062 6.36201
upperback -0.60694 0.713223 2.52875
thorax -5.93729 0.191865 -1.02672
lowerneck 1.09366 -4.86718 -2.17427
upperneck -7.06094 -5.77095 14.3263
head -1.74915 -3.22657 4.75384
rclavicle -4.76773e-015 7.74018e-015
rhumerus -0.559534 6.87107 -87.9024
rradius 20.8155
rwrist 45.0525
rhand -2.84019 -28.3557
rfingers 7.12502
rthumb 22.8673 -57.0199
lclavicle -4.76773e-015 7.74018e-015
lhumerus -6.81212 -1.95153 94.4538
lradius 14.3552
lwrist -43.806
lhand -19.0764 -19.527
lfingers 7.12502
lthumb 7.23139 10.3295
rfemur -16.5404 24.8047 18.748
rtibia 4.33469
rfoot -14.5072 -31.5459
rtoes 6.54702
lfemur -15.6061 -44.9549 2.27908
ltibia -2.90004
lfoot -18.0476 52.6165
ltoes 6.2384
447
root 0.202611 17.7234 8.92778 20.7791 4.50228 -7.71036
lowerback 9.46304 -0.344848 5.93952
upperback -0.386916 0.378319 2.90201
thorax -5.71373 0.0551452 -0.352951
lowerneck 1.4776 -4.53482 -2.90468
upperneck -7.27562 -5.3339 14.1002
head -1.89799 -3.00681 4.81968
rclavicle 2.99419e-015 -1.46107e-014
rhumerus -0.544703 16.229 -86.6003
rradius 21.3881
rwrist 35.858
rhand -3.02649 -29.9284
rfingers 7.12502
rthumb 22.6885 -58.6146
lclavicle 2.99419e-015 -1.46107e-014
lhumerus -7.4285 -3.9255 94.6598
lradius 15.713
lwrist -37.9862
lhand -19.5273 -19.3134
lfingers 7.12502
lthumb 6.79615 10.5576
rfemur -16.4601 24.5246 18.8639
rtibia 4.53775
rfoot -14.4103 -31.1121
rtoes 6.0592
lfemur -15.2253 -44.382 1.86833
ltibia -2.88273
lfoot -17.5728 52.1905
ltoes 5.83352
